HIERARCHY
ROOT Hips
{
	OFFSET 0.000000 89.005402 0.000000
	CHANNELS 6 Xposition Yposition Zposition Xrotation Yrotation Zrotation
	JOINT Spine
	{
		OFFSET 0.116900 10.681000 0.373400
		CHANNELS 3 Xrotation Yrotation Zrotation
		JOINT Spine1
		{
			OFFSET 0.000000 13.840401 0.053500
			CHANNELS 3 Xrotation Yrotation Zrotation
			JOINT Spine2
			{
				OFFSET 0.000000 14.712700 -0.366200
				CHANNELS 3 Xrotation Yrotation Zrotation
				JOINT Neck
				{
					OFFSET 0.000000 35.415497 -3.314200
					CHANNELS 3 Xrotation Yrotation Zrotation
					JOINT Head
					{
						OFFSET 0.000000 16.899200 1.218300
						CHANNELS 3 Xrotation Yrotation Zrotation
						JOINT HeadTop_End
						{
							OFFSET 0.000000 22.206207 2.192500
							CHANNELS 3 Xrotation Yrotation Zrotation
							End Site
							{
								OFFSET 0.000000 22.314178 0.000000
							}
						}
					}
				}
				JOINT LeftShoulder
				{
					OFFSET 12.896400 26.716293 -4.548400
					CHANNELS 3 Xrotation Yrotation Zrotation
					JOINT LeftArm
					{
						OFFSET 19.027000 -4.857010 -1.718400
						CHANNELS 3 Xrotation Yrotation Zrotation
						JOINT LeftForeArm
						{
							OFFSET 24.179897 0.000000 0.000000
							CHANNELS 3 Xrotation Yrotation Zrotation
							JOINT LeftHand
							{
								OFFSET 27.156403 0.000000 0.000000
								CHANNELS 3 Xrotation Yrotation Zrotation
								JOINT LeftHandIndex1
								{
									OFFSET 16.441200 0.000000 0.000000
									CHANNELS 3 Xrotation Yrotation Zrotation
									JOINT LeftHandIndex2
									{
										OFFSET 4.821899 0.000000 0.000000
										CHANNELS 3 Xrotation Yrotation Zrotation
										JOINT LeftHandIndex3
										{
											OFFSET 6.386497 0.000000 0.000000
											CHANNELS 3 Xrotation Yrotation Zrotation
											JOINT LeftHandIndex4
											{
												OFFSET 5.188988 0.000000 0.000000
												CHANNELS 3 Xrotation Yrotation Zrotation
												End Site
												{
													OFFSET -0.178703 5.185913 0.000177
												}
											}
										}
									}
								}
								JOINT LeftHandThumb1
								{
									OFFSET 6.534897 -5.032593 5.900300
									CHANNELS 3 Xrotation Yrotation Zrotation
									JOINT LeftHandThumb2
									{
										OFFSET 3.818176 -2.204422 2.204423
										CHANNELS 3 Xrotation Yrotation Zrotation
										JOINT LeftHandThumb3
										{
											OFFSET 3.252098 -1.877594 1.877601
											CHANNELS 3 Xrotation Yrotation Zrotation
											JOINT LeftHandThumb4
											{
												OFFSET 5.251778 -3.032120 3.032117
												CHANNELS 3 Xrotation Yrotation Zrotation
												End Site
												{
													OFFSET 0.000023 6.780014 0.000000
												}
											}
										}
									}
								}
							}
						}
					}
				}
				JOINT RightShoulder
				{
					OFFSET -12.896300 26.716293 -4.548400
					CHANNELS 3 Xrotation Yrotation Zrotation
					JOINT RightArm
					{
						OFFSET -19.027000 -4.857010 -1.718400
						CHANNELS 3 Xrotation Yrotation Zrotation
						JOINT RightForeArm
						{
							OFFSET -24.179897 0.000000 0.000000
							CHANNELS 3 Xrotation Yrotation Zrotation
							JOINT RightHand
							{
								OFFSET -27.156403 0.000000 0.000000
								CHANNELS 3 Xrotation Yrotation Zrotation
								JOINT RightHandThumb1
								{
									OFFSET -6.591202 -4.852203 5.988100
									CHANNELS 3 Xrotation Yrotation Zrotation
									JOINT RightHandThumb2
									{
										OFFSET -3.818176 -2.204422 2.204423
										CHANNELS 3 Xrotation Yrotation Zrotation
										JOINT RightHandThumb3
										{
											OFFSET -3.252098 -1.877594 1.877601
											CHANNELS 3 Xrotation Yrotation Zrotation
											JOINT RightHandThumb4
											{
												OFFSET -5.251778 -3.032120 3.032117
												CHANNELS 3 Xrotation Yrotation Zrotation
												End Site
												{
													OFFSET -0.000023 6.780014 0.000000
												}
											}
										}
									}
								}
								JOINT RightHandIndex1
								{
									OFFSET -16.029404 0.000000 0.000000
									CHANNELS 3 Xrotation Yrotation Zrotation
									JOINT RightHandIndex2
									{
										OFFSET -5.213303 0.000000 0.000000
										CHANNELS 3 Xrotation Yrotation Zrotation
										JOINT RightHandIndex3
										{
											OFFSET -6.386528 0.000000 0.000000
											CHANNELS 3 Xrotation Yrotation Zrotation
											JOINT RightHandIndex4
											{
												OFFSET -5.189026 0.000000 0.000000
												CHANNELS 3 Xrotation Yrotation Zrotation
												End Site
												{
													OFFSET 0.236702 5.183624 0.001972
												}
											}
										}
									}
								}
							}
						}
					}
				}
			}
		}
	}
	JOINT LeftUpLeg
	{
		OFFSET 14.073000 -7.904099 -1.463000
		CHANNELS 3 Xrotation Yrotation Zrotation
		JOINT LeftLeg
		{
			OFFSET -0.109806 -34.073280 4.093200
			CHANNELS 3 Xrotation Yrotation Zrotation
			JOINT LeftFoot
			{
				OFFSET 0.109806 -29.899420 -6.319000
				CHANNELS 3 Xrotation Yrotation Zrotation
				JOINT LeftToeBase
				{
					OFFSET 1.551100 -14.988700 20.535801
					CHANNELS 3 Xrotation Yrotation Zrotation
					JOINT LeftToe_End
					{
						OFFSET 0.221200 0.570800 13.248301
						CHANNELS 3 Xrotation Yrotation Zrotation
						End Site
						{
							OFFSET 0.000000 13.262435 0.000000
						}
					}
				}
			}
		}
	}
	JOINT RightUpLeg
	{
		OFFSET -13.839300 -7.904099 -1.463000
		CHANNELS 3 Xrotation Yrotation Zrotation
		JOINT RightLeg
		{
			OFFSET 0.109694 -34.073219 4.093300
			CHANNELS 3 Xrotation Yrotation Zrotation
			JOINT RightFoot
			{
				OFFSET -0.109694 -29.899384 -6.319200
				CHANNELS 3 Xrotation Yrotation Zrotation
				JOINT RightToeBase
				{
					OFFSET -1.551100 -14.988700 20.535801
					CHANNELS 3 Xrotation Yrotation Zrotation
					JOINT RightToe_End
					{
						OFFSET -0.221200 0.570900 13.248299
						CHANNELS 3 Xrotation Yrotation Zrotation
						End Site
						{
							OFFSET 0.000000 13.262440 0.000000
						}
					}
				}
			}
		}
	}
}
MOTION
Frames: 9
Frame Time: 0.033333
-0.223777 131.591446 0.525180 -6.194642 -15.190559 5.101718 4.563709 0.545858 4.506022 9.111486 1.997314 2.637511 9.079483 2.141227 2.625351 2.635072 1.864890 -5.563402 -10.287789 8.162147 -11.833751 0.000000 0.000000 -0.000000 0.632080 3.655279 -11.296415 -9.482553 3.243784 -63.377967 -0.000001 -11.407952 -0.000008 29.842360 -36.241356 15.838041 0.569502 2.746612 -23.424035 0.244671 1.822690 -15.289450 0.061417 0.919531 -7.642755 0.000001 -0.000001 -0.000000 10.808132 9.857605 -5.150232 -0.410538 23.162404 -5.980898 -2.969227 9.089379 -0.988951 -0.000001 0.000001 0.000002 1.668978 11.478608 11.119468 -23.028707 42.843574 49.013038 -0.000007 52.330099 -0.000012 44.355153 10.201973 -9.073969 18.374250 -3.293457 17.345610 23.482226 -18.399078 18.026973 7.075536 -6.244146 5.483642 0.000001 0.000001 0.000002 1.186727 -3.890238 33.917702 0.532642 -2.673575 22.530284 0.134345 -1.363018 11.258924 -0.000001 0.000003 -0.000001 -33.074744 6.172809 8.235957 15.770739 9.333681 0.397424 23.754826 1.016868 -1.464764 -0.000002 0.000002 -0.000001 0.000000 0.000000 -0.000000 -17.420310 -5.955259 -10.142122 60.333335 -9.549099 -0.638744 -36.678570 -5.850320 4.215636 -0.000007 0.000013 0.000004 0.000000 0.000001 -0.000000 
-0.201956 131.693222 0.486047 -6.130566 -15.148023 4.924720 4.542047 0.542676 4.522912 9.066782 1.985195 2.725572 9.035069 2.128007 2.713580 2.669505 1.857474 -5.519326 -10.606035 8.271927 -11.860526 -0.000001 -0.000000 0.000000 0.628672 3.719866 -11.361400 -9.452311 3.226759 -63.315191 -0.000000 -11.187508 -0.000018 29.299476 -35.971048 15.577932 0.569501 2.746611 -23.424038 0.244670 1.822688 -15.289448 0.061418 0.919531 -7.642756 -0.000003 0.000001 0.000001 10.808133 9.857608 -5.150232 -0.410544 23.162404 -5.980893 -2.969227 9.089380 -0.988951 0.000002 0.000000 0.000002 1.662647 11.395679 11.174880 -22.813744 43.046789 48.892174 -0.000011 52.366230 -0.000002 44.044796 9.892949 -9.130561 18.374247 -3.293459 17.345612 23.482226 -18.399077 18.026964 7.075538 -6.244146 5.483641 0.000001 -0.000000 0.000002 1.186727 -3.890238 33.917702 0.532641 -2.673575 22.530289 0.134347 -1.363020 11.258921 0.000000 0.000001 0.000000 -33.045500 6.176818 8.379722 15.532007 9.328858 0.387299 23.768502 0.957636 -1.381401 0.000004 -0.000000 0.000000 -0.000000 -0.000000 0.000000 -17.184775 -5.962368 -9.778984 59.769353 -9.606606 -0.652876 -36.633600 -6.036281 4.045092 0.000004 0.000004 0.000001 0.000000 -0.000001 -0.000000 
-0.179198 131.819031 0.468786 -5.913551 -15.086100 4.799232 4.507836 0.550926 4.523287 8.999434 1.982907 2.777409 8.967860 2.124308 2.765619 2.721538 1.834042 -5.403692 -11.038219 8.436015 -11.962999 -0.000001 0.000000 0.000000 0.626427 3.741789 -11.374334 -9.351392 3.250697 -63.322465 -0.000002 -10.956404 -0.000006 29.126269 -35.911434 15.343380 0.569498 2.746613 -23.424033 0.244671 1.822686 -15.289447 0.061417 0.919531 -7.642754 -0.000005 0.000000 0.000001 10.808130 9.857609 -5.150234 -0.410538 23.162396 -5.980889 -2.969224 9.089377 -0.988951 -0.000003 -0.000001 -0.000000 1.655943 11.305437 11.271508 -22.760999 43.181590 48.899397 0.000010 52.101096 -0.000015 44.009655 10.475079 -9.154386 18.374249 -3.293456 17.345610 23.482228 -18.399075 18.026966 7.075538 -6.244145 5.483640 0.000003 -0.000001 -0.000000 1.186724 -3.890240 33.917702 0.532639 -2.673576 22.530291 0.134346 -1.363016 11.258923 -0.000001 -0.000000 0.000001 -33.090385 6.154598 8.511520 15.191527 9.315085 0.375747 23.791378 0.928137 -1.416990 -0.000008 0.000000 -0.000001 0.000000 -0.000000 0.000000 -17.109284 -5.894528 -9.431420 59.215794 -9.649716 -0.669826 -36.445111 -6.284802 3.958096 -0.000010 0.000020 0.000004 -0.000000 -0.000000 -0.000000 
-0.151539 131.969177 0.413297 -5.742535 -15.210312 4.773179 4.466283 0.573152 4.503454 8.921751 1.996906 2.793513 8.890056 2.136826 2.781857 2.807769 1.797278 -5.261329 -11.504806 8.613320 -12.138797 0.000000 0.000000 0.000000 0.627782 3.716065 -11.348441 -9.146605 3.313498 -63.411203 0.000002 -10.793937 0.000016 29.204762 -36.112593 15.157281 0.569501 2.746614 -23.424031 0.244671 1.822688 -15.289450 0.061418 0.919532 -7.642755 0.000000 0.000000 0.000001 10.808137 9.857609 -5.150234 -0.410543 23.162404 -5.980894 -2.969229 9.089378 -0.988956 0.000002 0.000001 0.000005 1.651344 11.246388 11.356041 -22.781988 43.267619 48.981527 0.000010 51.597465 -0.000039 44.172544 11.691252 -9.377958 18.374250 -3.293460 17.345612 23.482225 -18.399078 18.026971 7.075538 -6.244146 5.483643 0.000001 0.000001 0.000002 1.186727 -3.890241 33.917702 0.532640 -2.673576 22.530289 0.134347 -1.363018 11.258922 -0.000001 -0.000002 0.000001 -32.885346 6.040797 8.554306 14.622221 9.293259 0.368416 23.877271 1.219539 -1.556583 0.000002 -0.000001 -0.000001 -0.000000 0.000000 -0.000000 -17.093559 -5.760468 -9.203044 58.700162 -9.679460 -0.686564 -36.280858 -6.408634 3.768965 -0.000013 -0.000003 0.000003 0.000000 0.000002 -0.000000 
-0.112215 132.125641 0.382844 -5.619365 -15.363155 4.757564 4.434615 0.598339 4.463504 8.864747 2.014457 2.795497 8.832993 2.152806 2.783931 2.900130 1.766076 -5.167636 -11.865838 8.753930 -12.315465 -0.000000 -0.000000 0.000000 0.633276 3.672521 -11.321454 -8.863765 3.335551 -63.531899 0.000002 -10.700840 0.000012 29.375810 -36.495299 15.048698 0.569500 2.746617 -23.424036 0.244669 1.822686 -15.289450 0.061418 0.919534 -7.642755 0.000001 -0.000000 -0.000001 10.808132 9.857610 -5.150232 -0.410537 23.162397 -5.980895 -2.969228 9.089378 -0.988952 0.000002 0.000000 0.000001 1.650004 11.242070 11.369769 -22.803372 43.342280 49.104180 0.000016 51.060674 -0.000030 44.360590 12.912590 -9.783151 18.374249 -3.293458 17.345610 23.482226 -18.399080 18.026970 7.075537 -6.244146 5.483643 0.000002 -0.000000 0.000000 1.186728 -3.890239 33.917702 0.532639 -2.673574 22.530282 0.134344 -1.363019 11.258927 -0.000000 -0.000001 -0.000002 -32.586313 5.969583 8.585973 13.992927 9.274263 0.361658 24.032738 1.490174 -1.717602 0.000000 0.000000 -0.000001 0.000000 -0.000000 -0.000001 -16.952279 -5.760912 -9.059038 58.087036 -9.727199 -0.700377 -36.258326 -6.396405 3.561549 0.000004 0.000002 0.000001 -0.000000 -0.000001 0.000000 
-0.063881 132.242783 0.378382 -5.420994 -15.444012 4.697962 4.433441 0.609788 4.410050 8.864849 2.012215 2.798580 8.833476 2.149170 2.787082 2.907612 1.766142 -5.158321 -12.014382 8.828914 -12.362403 -0.000000 -0.000000 -0.000000 0.639047 3.645545 -11.305175 -8.628291 3.288437 -63.645779 0.000001 -10.609720 -0.000004 29.778351 -36.787129 15.144281 0.569497 2.746610 -23.424033 0.244670 1.822686 -15.289450 0.061418 0.919531 -7.642753 0.000003 -0.000001 -0.000000 10.808133 9.857605 -5.150232 -0.410542 23.162403 -5.980893 -2.969228 9.089383 -0.988950 0.000003 0.000001 -0.000000 1.650668 11.261507 11.322670 -22.796535 43.486312 49.210956 -0.000031 50.763646 0.000032 44.374035 13.514735 -10.143744 18.374249 -3.293459 17.345609 23.482226 -18.399077 18.026970 7.075535 -6.244146 5.483646 -0.000001 -0.000000 -0.000001 1.186725 -3.890238 33.917702 0.532638 -2.673573 22.530284 0.134344 -1.363021 11.258926 0.000001 -0.000002 0.000001 -32.537160 5.899103 8.658635 13.617752 9.273898 0.358680 24.106393 1.670827 -1.736485 -0.000000 0.000001 0.000000 -0.000000 0.000000 -0.000000 -16.762768 -5.869228 -8.805354 57.388882 -9.807191 -0.719130 -36.514656 -6.534828 3.271415 0.000009 0.000009 -0.000004 -0.000000 0.000002 -0.000000 
-0.018304 132.331772 0.389819 -5.354080 -15.542403 4.645697 4.463536 0.602863 4.366365 8.924790 1.977953 2.800579 8.894270 2.114394 2.789013 2.752295 1.810074 -5.213878 -11.978578 8.841442 -12.193461 -0.000000 0.000000 0.000000 0.639802 3.646737 -11.290162 -8.602705 3.217211 -63.744346 0.000002 -10.467943 0.000006 30.580704 -36.615213 15.449330 0.569503 2.746612 -23.424036 0.244670 1.822688 -15.289448 0.061414 0.919532 -7.642756 0.000001 -0.000001 -0.000001 10.808135 9.857605 -5.150232 -0.410537 23.162399 -5.980889 -2.969229 9.089378 -0.988952 0.000003 0.000000 0.000002 1.651455 11.252001 11.260296 -22.766568 43.769249 49.228927 0.000006 50.863961 -0.000022 44.081351 13.231752 -10.294704 18.374245 -3.293458 17.345609 23.482225 -18.399078 18.026971 7.075541 -6.244147 5.483643 -0.000001 -0.000000 -0.000001 1.186725 -3.890238 33.917702 0.532640 -2.673573 22.530281 0.134346 -1.363017 11.258928 0.000001 0.000001 -0.000003 -32.431060 5.893618 8.727534 13.431004 9.270892 0.354946 24.060815 1.773012 -1.826831 -0.000001 -0.000000 0.000001 0.000000 0.000000 0.000000 -16.466755 -5.872471 -8.579448 56.802131 -9.874496 -0.738925 -36.822895 -6.703932 3.012517 -0.000007 0.000001 0.000000 -0.000000 0.000001 -0.000000 
0.035041 132.432861 0.458714 -5.181269 -15.462811 4.607922 4.496764 0.589729 4.344087 8.990966 1.920237 2.797145 8.961461 2.057090 2.785434 2.485427 1.879370 -5.295394 -11.919092 8.830192 -11.902078 -0.000000 0.000000 0.000000 0.635493 3.664954 -11.290245 -8.855744 3.163944 -63.817647 0.000000 -10.282513 -0.000019 31.555532 -35.811556 15.688854 0.569503 2.746616 -23.424033 0.244670 1.822688 -15.289454 0.061417 0.919531 -7.642755 -0.000001 -0.000001 -0.000000 10.808135 9.857610 -5.150234 -0.410541 23.162404 -5.980895 -2.969225 9.089376 -0.988955 0.000003 -0.000001 0.000001 1.652939 11.220455 11.181722 -22.734099 44.125454 49.150550 -0.000029 51.258145 0.000025 43.527361 12.292947 -10.351524 18.374245 -3.293459 17.345610 23.482225 -18.399080 18.026966 7.075539 -6.244147 5.483640 0.000002 0.000000 0.000001 1.186724 -3.890241 33.917702 0.532642 -2.673572 22.530286 0.134345 -1.363020 11.258922 -0.000001 -0.000000 -0.000001 -32.466898 5.793255 8.671069 13.286962 9.275211 0.354887 23.984370 1.863976 -1.696777 0.000004 -0.000002 -0.000001 0.000000 -0.000000 -0.000000 -16.172199 -5.949582 -8.397922 56.146849 -9.921569 -0.754882 -37.073604 -6.839064 2.802604 -0.000013 0.000000 0.000002 0.000000 -0.000002 -0.000000 
0.076740 132.555908 0.566794 -4.813415 -15.495420 4.508862 4.495651 0.583711 4.350019 8.989728 1.858167 2.792931 8.961008 1.995712 2.781124 2.273115 1.936219 -5.376961 -11.986859 8.857739 -11.716953 -0.000001 0.000000 0.000000 0.632633 3.681199 -11.340578 -9.277261 3.131685 -63.848513 0.000001 -10.113466 -0.000004 32.188137 -34.659689 15.578786 0.569503 2.746616 -23.424033 0.244667 1.822687 -15.289445 0.061415 0.919531 -7.642755 -0.000001 -0.000000 -0.000001 10.808136 9.857609 -5.150232 -0.410538 23.162406 -5.980897 -2.969226 9.089377 -0.988953 0.000001 0.000002 0.000003 1.659001 11.252551 11.061098 -22.677316 44.362150 49.005668 0.000013 51.678092 -0.000006 42.900323 11.236825 -10.572330 18.374249 -3.293458 17.345610 23.482225 -18.399080 18.026973 7.075538 -6.244147 5.483644 0.000003 -0.000000 0.000001 1.186727 -3.890240 33.917702 0.532642 -2.673575 22.530287 0.134344 -1.363022 11.258923 0.000000 -0.000004 0.000002 -32.741270 5.741463 8.781808 13.327675 9.283075 0.355929 23.748406 1.935009 -1.526719 -0.000003 0.000002 -0.000001 -0.000000 0.000000 0.000000 -16.070477 -5.861489 -8.113751 55.460832 -9.941332 -0.760094 -37.095628 -6.885226 2.751969 -0.000015 -0.000003 0.000007 -0.000000 -0.000001 -0.000000 
